PathFileType	4	(X/Y/Z)	C:/Users/beibeiliu/ov580/test_trc/capture2\sequence.7_training_dense_right.trc
DataRate	CameraRate	NumFrames	NumMarkers	Units	OrigDataRate	OrigDataStartFrame	OrigNumFrames
120	120	16	19	mm	120	251	400
Frame#	Time	ThumbCMC			ThumbMCP			ThumbIP			ThumbTip			IndexMCP			IndexPIP			IndexTip			MiddleMCP			MiddlePIP			MiddleTip			RingMCP			RingPIP			RingTip			PinkyMCP			PinkyPIP			PinkyTip			BackHand1			BackHand2			BackHand3	
		X0	Y0	Z0	X1	Y1	Z1	X2	Y2	Z2	X3	Y3	Z3	X4	Y4	Z4	X5	Y5	Z5	X6	Y6	Z6	X7	Y7	Z7	X8	Y8	Z8	X9	Y9	Z9	X10	Y10	Z10	X11	Y11	Z11	X12	Y12	Z12	X13	Y13	Z13	X14	Y14	Z14	X15	Y15	Z15	X16	Y16	Z16	X17	Y17	Z17	X18	Y18	Z18	
250	2.08333	146.471	-14.0981	-43.2122	142.936	-33.1654	-58.9789	130.75	-45.5158	-80.2199	123.815	-54.8052	-95.9815	158.915	-17.5093	-113.988	182.476	-31.1549	-109.447	179.312	-25.0225	-76.6305	176.016	-0.518434	-113.662	198.526	-20.4856	-101.515	185.426	-10.5336	-68.1918	192.165	12.3047	-108.661	208.799	-9.0612	-92.7812	190.757	0.643884	-62.4331	202.655	20.8231	-101.516	213.804	-0.310887	-82.5166	194.918	9.45033	-58.4129	164.709	41.6813	-67.6266	166.171	41.6826	-38.4115	143.818	18.9106	-54.9061	
251	2.09167	146.652	-15.2824	-42.5015	147.384	-30.6654	-60.4942	136.471	-43.6208	-80.2364	124.317	-55.3805	-98.1503	158.982	-14.3865	-111.963	183.575	-35.4858	-107.463	179.59	-21.812	-74.5009	176.787	-1.57177	-114.191	200.069	-21.5376	-100.916	187.383	-14.2038	-68.4273	193.828	9.09584	-108.993	212.356	-9.41351	-91.7476	192.407	-1.22941	-63.6312	207.126	21.3733	-101.753	215.021	-0.572027	-82.38	195.873	6.26632	-56.6762	166.297	41.7858	-70.9555	170.369	43.7362	-39.2868	146.653	19.1462	-55.4778	
252	2.1	149.535	-16.7756	-43.4002	146.097	-32.9919	-64.5344	137.47	-45.3265	-83.4181	131.091	-54.787	-98.2286	165.916	-11.0829	-114.095	188.768	-33.2156	-107.922	181.627	-25.7384	-74.2628	182.354	-1.71025	-114.076	204.655	-20.6197	-102.895	187.116	-12.6379	-67.9709	197.436	8.52861	-107.649	214.553	-11.2222	-90.7562	194.282	-2.39027	-62.3389	206.357	18.0329	-99.7093	219.837	-0.88988	-80.8727	200.626	7.53087	-55.008	171.108	43.0875	-68.9677	171.782	43.5537	-37.1484	149.455	20.478	-54.6168	
253	2.10833	149.663	-16.3427	-46.5973	150.673	-32.1911	-62.2321	137.607	-46.738	-87.0163	128.948	-57.6518	-99.3834	166.032	-14.7917	-114.857	189.608	-35.2015	-109.42	186.236	-29.3342	-77.5694	183.441	-3.22085	-114.021	206.635	-22.7718	-99.6101	189.079	-15.1476	-67.5722	202.292	8.19734	-108.339	214.464	-12.1665	-91.6621	195.492	-4.43256	-63.0544	212.288	19.5542	-98.5165	220.934	-2.45205	-82.6328	201.613	5.11005	-55.0947	174.885	40.6772	-70.2396	169.214	41.0413	-37.6476	150.565	20.8136	-54.6659	
254	2.11667	153.232	-14.5215	-44.6279	152.787	-31.6524	-65.2551	142.902	-43.4995	-86.7429	135.166	-53.891	-105.031	172.921	-13.7884	-117.307	192.946	-31.7867	-110.477	184.151	-27.6707	-75.0856	186.048	-2.05647	-114.35	207.362	-23.8713	-100.865	190.561	-13.4128	-67.9773	204.164	7.52999	-108.307	215.954	-14.4983	-89.9971	195.982	-3.56341	-63.2567	216.63	19.8011	-99.6221	218.782	-5.00076	-80.7851	201.753	4.53558	-58.9158	177.611	43.5048	-68.1867	170.873	40.7462	-40.5813	151.261	19.306	-54.6286	
255	2.125	152.672	-15.753	-43.799	151.389	-32.4265	-67.9539	142.224	-46.41	-88.3719	134.3	-56.96	-105.424	171.581	-12.7595	-115.14	194.341	-35.2042	-109.386	186.464	-26.7484	-74.9164	190.612	-2.92033	-115.532	209.931	-23.4776	-101.618	196.224	-16.1995	-70.1414	204.994	9.00493	-106.843	218.283	-14.8985	-86.9648	199.311	-5.3668	-64.2168	218.833	19.4662	-99.2542	223.708	-4.05732	-80.2013	203.81	2.83327	-58.7188	179.498	40.9683	-71.4912	173.57	41.4086	-36.9344	152.855	17.4798	-57.274	
256	2.13333	153.906	-14.2806	-48.8748	153.85	-32.3612	-68.0011	145.275	-44.0816	-89.8679	139.761	-53.222	-105.425	176.27	-13.567	-116.165	195.331	-35.7666	-110.723	189.65	-27.3605	-76.825	192.779	0.201592	-114.331	212.464	-23.4392	-101.204	194.733	-16.6419	-68.6305	206.677	2.69685	-108.39	221.729	-13.4809	-88.4512	201.13	-6.34466	-63.0273	220.773	15.0519	-99.0773	222.59	-6.24507	-79.4212	206.483	1.92403	-57.143	178.522	39.1257	-70.1424	173.529	40.684	-39.9604	155.145	21.6793	-55.1594	
257	2.14167	152.156	-15.5854	-46.3772	155.494	-30.362	-67.6533	146.166	-44.5567	-88.3508	140.268	-52.2821	-108.624	176.011	-16.1421	-117.028	198.952	-33.3171	-106.669	190.629	-26.1498	-77.4253	192.805	-3.85168	-116.201	211.777	-24.7917	-102.445	196.673	-15.1861	-68.7947	208.322	4.21019	-108.073	221.089	-15.5879	-87.6442	201.333	-7.0384	-63.5209	221.726	15.9151	-96.9137	226.733	-5.21202	-79.7814	204.611	4.95289	-55.9094	183.037	40.0562	-72.5368	176.252	42.2184	-40.4255	156.546	20.7481	-56.0992	
258	2.15	154.988	-13.9361	-46.9675	151.483	-32.3638	-70.2939	146.556	-42.638	-91.1742	139.927	-52.7969	-110.798	178.819	-11.3323	-117.333	200.22	-34.0513	-107.245	194.055	-25.6291	-78.9627	198.454	-0.703581	-114.814	212.341	-27.6546	-99.3506	196.667	-14.6162	-68.8634	216.193	4.7409	-107.61	222.402	-17.6455	-86.9951	201.458	-3.69043	-62.672	221.69	17.2015	-95.0344	229.291	-6.34597	-75.932	204.555	3.45061	-57.2137	183.6	41.1572	-70.8469	182.017	43.0047	-40.5225	156.335	21.5201	-58.9889	
259	2.15833	154.035	-11.4215	-49.4063	155.229	-27.8674	-71.4512	147.676	-39.1004	-92.522	141.42	-49.7018	-109.678	179.74	-14.1619	-118.981	198.278	-35.1211	-108.602	189.847	-26.6263	-76.7259	202.628	-2.75007	-115.996	211.76	-27.4806	-100.828	201.103	-14.7419	-69.0562	212.752	5.36899	-107.489	224.342	-16.0398	-89.8754	203.045	-7.54001	-64.5267	228.174	14.2764	-96.7819	227.619	-8.51359	-75.0803	207.14	1.96416	-56.0227	189.169	43.4361	-73.4124	184.8	43.53	-37.8316	157.676	21.3207	-57.7201	
260	2.16667	153.527	-11.055	-49.9968	154.341	-26.6469	-69.2321	144.941	-38.6899	-93.5713	137.985	-48.9279	-111.936	185.301	-11.2929	-119.642	201.848	-32.4018	-110.401	190.43	-24.7722	-77.9732	201.084	0.250838	-114.805	215.316	-26.8422	-102.045	199.204	-16.2445	-69.717	216.151	3.3655	-106.835	222.801	-19.6932	-87.8988	203.188	-6.43623	-62.9282	230.657	11.9561	-95.841	230.34	-9.18264	-75.9799	208.966	2.78536	-55.9363	192.754	41.9454	-69.5431	184.891	42.1457	-39.0672	162.377	25.5937	-62.923	
261	2.175	155.847	-7.51215	-51.0263	153.725	-25.2779	-75.0823	147.676	-35.4618	-99.8227	142.636	-44.056	-118.243	184.903	-10.1503	-119.691	199.066	-35.701	-112.536	192.752	-24.4878	-79.5097	203.087	-2.79424	-117.571	217.379	-25.5009	-100.922	197.356	-15.1198	-69.7565	220.113	2.51854	-107.384	226.996	-18.4447	-88.3692	202.801	-6.10063	-63.3137	229.44	15.1355	-93.9996	231.569	-10.2663	-75.1991	205.363	2.6164	-58.0669	194.625	42.7257	-72.601	184.703	40.9436	-41.1141	163.823	24.8817	-61.792	
262	2.18333	154.849	-6.4289	-55.9781	153.289	-24.7673	-72.2617	144.3	-35.0824	-96.829	140.886	-43.1274	-116.746	186.669	-11.4706	-121.415	201.991	-31.8907	-110.615	192.924	-22.3757	-79.0532	207.275	-0.614668	-116.314	217.242	-26.9127	-99.7507	200.539	-15.1191	-71.2274	220.432	4.95122	-106.77	223.65	-20.1091	-87.6712	205.354	-4.84187	-62.2615	232.011	11.9182	-94.1119	231.217	-11.5737	-77.0793	210.823	0.178132	-56.6281	198.625	43.777	-69.176	188.001	45.0918	-41.3668	165.91	28.5288	-65.4911	
263	2.19167	155.984	-4.31562	-58.3427	152.919	-21.5113	-76.4823	146.514	-31.1328	-103.26	139.718	-39.9512	-119.697	186.985	-9.76303	-122.141	198.39	-35.3531	-110.651	191.393	-25.3712	-80.8799	207.63	1.24351	-116.016	217.004	-26.2786	-103.961	197.364	-17.7588	-72.1607	222.046	3.23204	-107.7	227.525	-20.8507	-87.347	208.294	-7.23667	-63.0737	234.769	12.0118	-93.8201	231.068	-12.5928	-76.4381	209.371	-2.30054	-56.5798	199.321	42.9078	-70.5756	189.447	44.6228	-40.8016	167.63	27.5888	-62.5816	
264	2.2	153.286	-3.03762	-55.0626	153.617	-18.8539	-75.4505	146.083	-28.4445	-104.363	143.306	-36.1141	-120.727	189.721	-9.01981	-122.196	197.067	-34.1298	-112.219	191.744	-22.2995	-81.6653	210.096	-0.92342	-116.577	217.175	-28.6563	-102.297	198.092	-15.4317	-70.9114	226.1	3.05762	-106.09	223.215	-23.8542	-88.7073	206.104	-5.21831	-63.1621	234.484	8.53812	-93.5429	230.014	-16.6393	-76.943	207.221	-1.01069	-58.1075	206.002	43.0077	-68.683	193.505	42.5304	-43.0533	170.528	29.6196	-63.3717	
265	2.20833	158.655	2.21302	-59.8252	153.098	-15.7534	-80.3193	145.156	-25.7048	-106.154	139.946	-34.3779	-125.479	192.401	-6.25349	-121.964	199.102	-33.7669	-111.813	189.012	-21.2134	-80.551	212.139	-4.68006	-118.057	215.056	-29.7651	-102.651	200.652	-15.8	-71.4819	225.958	-2.03293	-105.711	224.049	-26.2517	-84.2868	206.595	-10.4574	-64.659	240.421	2.63757	-93.2566	231.953	-19.1171	-78.0347	211.748	-1.60887	-55.8424	211.414	40.6614	-73.5993	196.565	44.2461	-39.9294	173.076	32.7295	-65.7975	
